<svg xmlns="http://www.w3.org/2000/svg" width="563.16" height="540.86" viewBox="0 0 563.16 540.86">
  <defs>
    <style>
      .cls-1 {
        fill: #fff;
      }

      .cls-2 {
        fill: none;
        stroke: #fff;
        stroke-linecap: round;
        stroke-linejoin: round;
        stroke-width: 11px;
      }
    </style>
  </defs>
  <g id="Calque_2" data-name="Calque 2">
    <g id="Calque_2-2" data-name="Calque 2">
      <g>
        <path class="cls-1" d="M457.31,209.41c-.66,0-1.32,0-2,0A49.52,49.52,0,0,1,430.83,118V25.74a25.74,25.74,0,0,1,51.48,0v91.42a49.52,49.52,0,0,1-25,92.25Zm-.75-204a20.37,20.37,0,0,0-20.35,20.35v95.38l-1.34.78a43.56,43.56,0,0,0-21.66,35.8,44.12,44.12,0,1,0,65.1-36.6l-1.41-.77V25.74A20.37,20.37,0,0,0,456.56,5.39Z"/>
        <path class="cls-1" d="M457.34,186.08c-.6,0-1.21,0-1.81-.07a25.13,25.13,0,0,1-9.95-47.29V111a5.65,5.65,0,0,1,5.64-5.65h11.24a6.23,6.23,0,0,1,6.22,6.22v26.95a25.14,25.14,0,0,1-11.34,47.57Zm-6.12-75.34a.25.25,0,0,0-.25.25v31.17l-1.61.71a19.75,19.75,0,0,0,6.54,37.77,19.75,19.75,0,0,0,9-37.92l-1.66-.69V111.56a.82.82,0,0,0-.82-.82Z"/>
        <path class="cls-1" d="M457.29,175.1A15.32,15.32,0,0,1,442,159.8a15.06,15.06,0,0,1,.21-2.5,2.7,2.7,0,0,1,5.32.88,9.74,9.74,0,0,0-.13,1.62,9.91,9.91,0,0,0,12.08,9.67,2.7,2.7,0,0,1,1.18,5.26A15.17,15.17,0,0,1,457.29,175.1Z"/>
        <path class="cls-1" d="M453.49,27.26H433.62a2.7,2.7,0,1,1,0-5.39h19.87a2.7,2.7,0,1,1,0,5.39Z"/>
        <path class="cls-1" d="M462.5,44.67H433.62a2.7,2.7,0,1,1,0-5.39H462.5a2.7,2.7,0,1,1,0,5.39Z"/>
        <path class="cls-1" d="M451.45,62.3H433.62a2.7,2.7,0,1,1,0-5.39h17.83a2.7,2.7,0,1,1,0,5.39Z"/>
        <path class="cls-1" d="M451.45,96.51H433.62a2.7,2.7,0,1,1,0-5.39h17.83a2.7,2.7,0,1,1,0,5.39Z"/>
        <path class="cls-1" d="M462.5,79H433.62a2.7,2.7,0,1,1,0-5.39H462.5a2.7,2.7,0,1,1,0,5.39Z"/>
      </g>
      <g>
        <path class="cls-2" d="M281.58,26.36,182.71,174.83c-52.61,79,4,184.76,98.94,184.76h0c95,0,151.58-105.83,98.9-184.82Z"/>
        <path class="cls-2" d="M69.05,242.09l-63,.08q-.51,8.49-.52,17.11a279.26,279.26,0,0,0,1.94,32.91H70.89a211.67,211.67,0,0,0,22.5,67.4L49.88,409.46h0a277.53,277.53,0,0,0,71.69,74.83l.35.25,44-46.1a212.36,212.36,0,0,0,64.61,27.91l0,64.3h0a279.07,279.07,0,0,0,102.11,0h0v-64.3a212.36,212.36,0,0,0,64.61-27.91l41,48.17h0A277.41,277.41,0,0,0,512.9,410h0l-45.14-46.76a211.68,211.68,0,0,0,24.09-68.5l63.86-2.58h0a279.26,279.26,0,0,0,1.94-32.91q0-8.64-.53-17.16l-63.05-.46"/>
        <path class="cls-2" d="M494.08,241.66h-63a149.42,149.42,0,1,1-298.83,0H69.05"/>
        <path class="cls-2" d="M236.52,193h0a53.59,53.59,0,0,0,2.85,74.3l2.21,2.11"/>
      </g>
    </g>
  </g>
</svg>
