<svg xmlns="http://www.w3.org/2000/svg" width="518.92" height="618.83" viewBox="0 0 518.92 618.83">
  <defs>
    <style>
      .cls-1 {
        fill: none;
        stroke: #fff;
        stroke-linecap: round;
        stroke-linejoin: round;
        stroke-width: 11px;
      }
    </style>
  </defs>
  <g id="Calque_2" data-name="Calque 2">
    <g id="Calque_2-2" data-name="Calque 2">
      <g>
        <g>
          <path class="cls-1" d="M147.86,189.82A128,128,0,0,1,259.27,125"/>
          <path class="cls-1" d="M131.3,258.63c-.08-1.84-.12-3.7-.12-5.56a127.73,127.73,0,0,1,8.48-45.92"/>
          <line class="cls-1" x1="254.22" y1="488.03" x2="201.67" y2="488.03"/>
          <path class="cls-1" d="M281.25,520.27h34.48a19.81,19.81,0,0,1,19.9,20h0a20.27,20.27,0,0,1-20.28,20H201.67a19.81,19.81,0,0,1-19.9-20h0a20.27,20.27,0,0,1,20.28-20h25.2"/>
          <line class="cls-1" x1="202.05" y1="488.03" x2="202.05" y2="520.27"/>
          <path class="cls-1" d="M317.05,448.15a120.91,120.91,0,0,1,21-52.2l6.46-9.08A158.65,158.65,0,1,0,166.77,382h0l14.46,18.63a99,99,0,0,1,19.92,47.54"/>
          <path class="cls-1" d="M315.73,520.27,315.35,488a20.27,20.27,0,0,0,20.28-20h0a19.81,19.81,0,0,0-19.9-20H202.05a20.27,20.27,0,0,0-20.28,20h0a19.81,19.81,0,0,0,19.9,20"/>
          <path class="cls-1" d="M214.55,574.68h0a38.65,38.65,0,0,0,38.66,38.65h10.86a38.64,38.64,0,0,0,38.65-38.65h0"/>
          <line class="cls-1" x1="258.7" y1="430.43" x2="258.7" y2="268.24"/>
          <line class="cls-1" x1="259.27" y1="322.81" x2="287.06" y2="296.03"/>
          <line class="cls-1" x1="258.7" y1="354.13" x2="229.96" y2="330.89"/>
          <path class="cls-1" d="M232.49,397.08l-23.67-30a69.31,69.31,0,0,1-3-81.75l52.86-78.22,53.75,81.63a69.31,69.31,0,0,1-3.81,81.45l-21.52,26.85"/>
          <line class="cls-1" x1="462.51" y1="260.66" x2="513.42" y2="260.66"/>
          <line class="cls-1" x1="478.8" y1="133.92" x2="434.85" y2="158.59"/>
          <line class="cls-1" x1="386.59" y1="40.74" x2="360.38" y2="83.86"/>
          <line class="cls-1" x1="259.27" y1="5.5" x2="259.27" y2="57.42"/>
          <line class="cls-1" x1="132.07" y1="40.11" x2="157.4" y2="84.87"/>
          <line class="cls-1" x1="38.47" y1="132.57" x2="82.17" y2="158.59"/>
        </g>
        <line class="cls-1" x1="5.5" y1="260.28" x2="56.15" y2="260.28"/>
      </g>
    </g>
  </g>
</svg>
