<svg xmlns="http://www.w3.org/2000/svg" width="538.57" height="538.67" viewBox="0 0 538.57 538.67">
  <defs>
    <style>
      .cls-1 {
        fill: none;
        stroke: #fff;
        stroke-linecap: round;
        stroke-linejoin: round;
        stroke-width: 11px;
      }
    </style>
  </defs>
  <g id="Calque_2" data-name="Calque 2">
    <g id="Calque_2-2" data-name="Calque 2">
      <g>
        <path class="cls-1" d="M400,360.89h0a84,84,0,0,1-35.05-67.59c-.39-46,36.85-84.15,82.87-84.79a84.08,84.08,0,0,1,46.38,155h0a102.73,102.73,0,0,0-7.43,39.42l.13,12.48a37.88,37.88,0,0,1-75.76,0l-.44-12.28a102.58,102.58,0,0,0-9.4-39.41Z"/>
        <line class="cls-1" x1="410.76" y1="405.42" x2="486.8" y2="405.42"/>
        <line class="cls-1" x1="449" y1="405.42" x2="449" y2="334.26"/>
        <circle class="cls-1" cx="448.78" cy="307.34" r="24.62"/>
        <path class="cls-1" d="M229,352.32h92.63a19.21,19.21,0,0,1,19.21,19.22V415a63.45,63.45,0,0,1-63.45,63.45h-4.15A63.46,63.46,0,0,1,209.76,415V371.54A19.22,19.22,0,0,1,229,352.32Z"/>
        <line class="cls-1" x1="304.6" y1="352.32" x2="304.6" y2="310.29"/>
        <line class="cls-1" x1="248.75" y1="352.32" x2="248.75" y2="310.29"/>
        <path class="cls-1" d="M273.22,478.4l17.52,21.77c45,55.91,134.35,37.69,153.87-31.37L449,453.27"/>
        <path class="cls-1" d="M286.2,292.43A174.13,174.13,0,0,0,39.25,533.17h247"/>
        <path class="cls-1" d="M59.5,304.08h97.94a37.39,37.39,0,0,1,37.39,37.39h0a37.39,37.39,0,0,1-37.39,37.39H131.86a37.41,37.41,0,0,0-37.4,37.4v1.27a37.4,37.4,0,0,0,37.4,37.39h63"/>
        <polyline class="cls-1" points="216.93 260.02 216.93 227.62 242.11 227.62 242.11 267.57"/>
        <polygon class="cls-1" points="163.31 227.62 295.2 227.62 281.93 148.82 172.44 148.82 163.31 227.62"/>
        <line class="cls-1" x1="167.87" y1="188.22" x2="288.57" y2="188.22"/>
        <line class="cls-1" x1="200.82" y1="227.62" x2="208.2" y2="148.82"/>
        <line class="cls-1" x1="253.17" y1="227.62" x2="245.8" y2="148.82"/>
        <line class="cls-1" x1="126.14" y1="264.38" x2="126.14" y2="118.4"/>
        <line class="cls-1" x1="101.89" y1="274.28" x2="104.76" y2="148.82"/>
        <circle class="cls-1" cx="114.92" cy="102" r="18.06"/>
        <path class="cls-1" d="M126.14,116.15,67.82,189.66a8.31,8.31,0,0,1-12.21.9h0a8.31,8.31,0,0,1-1.17-10.76l45.91-67.13"/>
        <path class="cls-1" d="M131.57,109l80.08,4.83a6.57,6.57,0,0,0,6.71-4.77h0a6.56,6.56,0,0,0-5.26-8.26L124,86.38"/>
        <path class="cls-1" d="M96.86,102l-42-83.43A9,9,0,0,1,58.75,6.49h0a9,9,0,0,1,12,3.78l39.33,73.66"/>
        <circle class="cls-1" cx="444.71" cy="94.62" r="47"/>
        <line class="cls-1" x1="516.95" y1="91.86" x2="527.27" y2="91.86"/>
        <line class="cls-1" x1="494.14" y1="43.89" x2="504.23" y2="33.79"/>
        <line class="cls-1" x1="444.71" y1="8.91" x2="444.71" y2="23.84"/>
        <line class="cls-1" x1="384.42" y1="33.79" x2="395.66" y2="45.41"/>
        <line class="cls-1" x1="360.82" y1="92.6" x2="376.31" y2="92.6"/>
        <line class="cls-1" x1="384.42" y1="154.16" x2="396.03" y2="142.73"/>
        <line class="cls-1" x1="444.71" y1="177.57" x2="444.71" y2="163.2"/>
        <line class="cls-1" x1="494.14" y1="142.31" x2="504.23" y2="153.06"/>
      </g>
    </g>
  </g>
</svg>
