<svg xmlns="http://www.w3.org/2000/svg" width="303.68" height="414.17" viewBox="0 0 303.68 414.17">
  <defs>
    <style>
      .cls-1 {
        fill: none;
        stroke: #fff;
        stroke-miterlimit: 10;
        stroke-width: 11px;
      }
    </style>
  </defs>
  <g id="Calque_2" data-name="Calque 2">
    <g id="Calque_3" data-name="Calque 3">
      <path class="cls-1" d="M150.81,9.09c13.9,18.8,27.42,36.62,40.45,54.78,25.14,35,49.84,70.37,75,105.37,35.48,49.32,42.05,102,16.32,157.1-26.64,57.08-90,89.92-152.24,80.83-64.28-9.39-113.74-58-123.09-121.95C2,249,8.68,214.52,26.54,182.63,61.33,120.53,106.52,65.86,150.81,9.09Zm-81.6,166.8c-11.33,22.7-21.78,47.77-25.47,74.83-3.64,26.65,2.46,51.79,17.55,74.21,7.7,11.45,18.07,19.57,32.93,19.31,15.43-.27,28.12-11.18,31.79-27.19,3.92-17.08-4.35-37.58-19.6-44.45C90,265.2,80.76,252.41,77.55,235.85,73.64,215.73,71.8,195.22,69.21,175.89Z"/>
    </g>
  </g>
</svg>
