<svg xmlns="http://www.w3.org/2000/svg" width="563.16" height="520" viewBox="0 0 563.16 520">
  <defs>
    <style>
      .cls-1 {
        fill: none;
        stroke: #fff;
        stroke-linecap: round;
        stroke-linejoin: round;
        stroke-width: 11px;
      }
    </style>
  </defs>
  <g id="Calque_2" data-name="Calque 2">
    <g id="Calque_2-2" data-name="Calque 2">
      <g>
        <path class="cls-1" d="M281.58,5.5,182.71,154c-52.61,79,4,184.76,98.94,184.76h0c95,0,151.58-105.83,98.9-184.83Z"/>
        <path class="cls-1" d="M69.05,221.23l-63,.08q-.51,8.49-.52,17.11a279.26,279.26,0,0,0,1.94,32.91H70.89a211.67,211.67,0,0,0,22.5,67.4L49.88,388.6h0a277.53,277.53,0,0,0,71.69,74.83l.35.25,44-46.11a212.13,212.13,0,0,0,64.61,27.92l0,64.29h0a279.07,279.07,0,0,0,102.11,0h0v-64.3a211.87,211.87,0,0,0,64.61-27.91l41,48.18h0a277.41,277.41,0,0,0,74.62-76.58h0l-45.14-46.76a211.77,211.77,0,0,0,24.09-68.5l63.86-2.58h0a279.26,279.26,0,0,0,1.94-32.91q0-8.64-.53-17.16l-63.05-.46"/>
        <path class="cls-1" d="M494.08,220.8h-63a149.42,149.42,0,1,1-298.83,0H69.05"/>
        <path class="cls-1" d="M236.52,172.11h0a53.59,53.59,0,0,0,2.85,74.3l2.21,2.12"/>
      </g>
    </g>
  </g>
</svg>
