<svg xmlns="http://www.w3.org/2000/svg" width="421.4" height="577.1" viewBox="0 0 421.4 577.1">
  <defs>
    <style>
      .cls-1 {
        fill: none;
        stroke: #fff;
        stroke-linecap: round;
        stroke-linejoin: round;
        stroke-width: 11px;
      }
    </style>
  </defs>
  <g id="Calque_2" data-name="Calque 2">
    <g id="Calque_2-2" data-name="Calque 2">
      <g>
        <polyline class="cls-1" points="102.13 441.29 144.19 482.22 116.91 517.46 181.71 565.21 155.94 423.1"/>
        <polyline class="cls-1" points="313.84 441.29 271.77 482.22 299.06 517.46 234.26 565.21 264.95 423.1"/>
        <path class="cls-1" d="M265.08,423.1l-9.73,18.31a52.85,52.85,0,0,1-46.67,28h0c-18.6,0-33.16-11.43-42.7-27.41l-10-18.95"/>
        <path class="cls-1" d="M5.5,571.6V530.53A107.43,107.43,0,0,1,112.93,423.1h43V370.43"/>
        <path class="cls-1" d="M404.46,482.23a107,107,0,0,1,11.44,48.3V571.6"/>
        <path class="cls-1" d="M372.66,444.38A108.08,108.08,0,0,1,393,464.23"/>
        <path class="cls-1" d="M265.08,373.31V423.1h43.39A107,107,0,0,1,356,434.16"/>
        <path class="cls-1" d="M248.41,134.17a114.41,114.41,0,0,1,76.25,82.91"/>
        <path class="cls-1" d="M123.17,172.89a114.37,114.37,0,0,1,58.54-39.74"/>
        <path class="cls-1" d="M102.13,217.08a113.41,113.41,0,0,1,13.81-33.75"/>
        <path class="cls-1" d="M327.55,246.13a113.65,113.65,0,0,1-16.89,56.64h0a98.11,98.11,0,0,1-194.53,0h0a113.65,113.65,0,0,1-16.89-56.64"/>
        <path class="cls-1" d="M335.05,125.82a57.65,57.65,0,0,1-35.82,41.77"/>
        <path class="cls-1" d="M221.3,109.2a57.6,57.6,0,0,1,114.9.75"/>
        <path class="cls-1" d="M286.6,246.13a113.7,113.7,0,0,1,31.16,42.35"/>
        <path class="cls-1" d="M108.85,288.91a113.6,113.6,0,0,1,31.34-42.78"/>
        <rect class="cls-1" x="83.94" y="217.08" width="256.48" height="29.05"/>
        <polyline class="cls-1" points="181.71 133.16 181.71 120.32 248.41 120.32 248.41 174.51"/>
        <polyline class="cls-1" points="248.41 190.81 248.41 217.08 181.71 217.08 181.71 133.16"/>
        <line class="cls-1" x1="203.69" y1="120.32" x2="203.69" y2="165.04"/>
        <line class="cls-1" x1="226.81" y1="120.32" x2="226.81" y2="165.04"/>
        <path class="cls-1" d="M329.12,192.7l16.42,10a4.32,4.32,0,0,0,5.09-.95L367,184a4.32,4.32,0,0,0,.44-5.27L359,161.61a4.34,4.34,0,0,1-.24-4.27c2-4.08,4.27-9.75,5.42-12.7a4.3,4.3,0,0,1,2.79-2.57l26.88-8a4.3,4.3,0,0,0,3.08-4.13V106.67a4.31,4.31,0,0,0-2.84-4l-25.73-9.33a4.3,4.3,0,0,1-2.65-2.77C364.32,86,361.87,80,360.6,77a4.3,4.3,0,0,1,.21-3.78l10.65-19a4.32,4.32,0,0,0-.73-5.19L352.91,31.53a4.32,4.32,0,0,0-4.94-.8L331.2,39a4.31,4.31,0,0,1-4.08-.14c-6.95-4.09-18.43-8.56-23-10.27a4.31,4.31,0,0,1-2.59-2.73L296,8.5a4.33,4.33,0,0,0-4.12-3H268.24A4.32,4.32,0,0,0,264.31,8l-9,19.87S237,34.44,229.06,39.69a4.3,4.3,0,0,1-4.64,0l-13.76-8.6a4.31,4.31,0,0,0-5.22.49L189,46.92a4.32,4.32,0,0,0-1,5l9.56,20a4.28,4.28,0,0,1,.08,3.52,175.79,175.79,0,0,0-6.91,19.11,4.33,4.33,0,0,1-3.12,3.08l-17.41,4.1a4.31,4.31,0,0,0-3.27,4.18v12.17"/>
      </g>
    </g>
  </g>
</svg>
