<svg xmlns="http://www.w3.org/2000/svg" width="579.26" height="644.6" viewBox="0 0 579.26 644.6">
  <defs>
    <style>
      .cls-1 {
        fill: none;
        stroke: #fff;
        stroke-linecap: round;
        stroke-linejoin: round;
        stroke-width: 11px;
      }
    </style>
  </defs>
  <g id="Calque_2" data-name="Calque 2">
    <g id="Calque_2-2" data-name="Calque 2">
      <g>
        <path class="cls-1" d="M102.05,213.68C15.92,266.28-12.19,367.1,16.14,451.62"/>
        <path class="cls-1" d="M399.7,152.57,427.8,129a53.45,53.45,0,0,0-5.61-86L363.48,5.5,321.77,19.74l13,14.62a34.68,34.68,0,0,1-9.29,53.39L124.64,200.81"/>
        <path class="cls-1" d="M334,218.38A81.64,81.64,0,0,1,356.37,189L374,174.16"/>
        <path class="cls-1" d="M453.51,438.11l73.33-77L391.59,331.62c-47.34-10.32-71.53-56.17-62.69-97.49"/>
        <line class="cls-1" x1="338.16" y1="558.14" x2="414.63" y2="478.28"/>
        <path class="cls-1" d="M27.26,478.28c18.42,36.54,48.5,68.26,90.09,89.09L260.63,639.1l59-61.64"/>
        <polygon class="cls-1" points="471.9 349.12 471.9 298.68 503.27 298.68 503.27 355.96 471.9 349.12"/>
        <path class="cls-1" d="M403.38,280.61l36.85-49.43H425.51a11.31,11.31,0,0,1-8.84-18.37l35.66-44.68H436.25a11.31,11.31,0,0,1-8.71-18.53l60-72.54,60.65,72.5a11.31,11.31,0,0,1-8.67,18.57H521.74l34.08,43.48a11.32,11.32,0,0,1-8.91,18.29H530.66l40.58,50.38a11.31,11.31,0,0,1-8.81,18.4h-150A11.31,11.31,0,0,1,403.38,280.61Z"/>
        <path class="cls-1" d="M76.56,54.42,112.88,5.5l39.21,46.66a11.28,11.28,0,0,1-8.64,18.53h-.64l22,34.22a11.27,11.27,0,0,1-9.48,17.36h-5.48l20.63,26.64a11.27,11.27,0,0,1-8.91,18.17h-94a11.27,11.27,0,0,1-8.81-18.3l19.13-24H72.67a11.27,11.27,0,0,1-9.26-17.71l24-34.51-2.73-.23A11.27,11.27,0,0,1,76.56,54.42Z"/>
        <rect class="cls-1" x="102.05" y="167.08" width="21.02" height="45.39"/>
        <path class="cls-1" d="M20.05,478.28H166.33a12.22,12.22,0,0,0,9.74-19.59l-38.67-51.1h16.43a12.22,12.22,0,0,0,9.27-20.17l-40-46.7h14.21A12.22,12.22,0,0,0,146.93,321L92.5,250.92,38.07,321a12.21,12.21,0,0,0,9.64,19.71h10.4L21.33,386.8a12.21,12.21,0,0,0,9.55,19.83H53.33l-42.7,51.65A12.22,12.22,0,0,0,20.05,478.28Z"/>
        <rect class="cls-1" x="80.19" y="478.28" width="24.63" height="56.04"/>
        <path class="cls-1" d="M247.26,375.74c31.14,29.91,74,53.32,124.18,72.61l-59.22,46.49c-49.6-24.13-94.52-56.28-136.78-93Z"/>
        <path class="cls-1" d="M156.79,333.71h52.89c-9-31.33-4.46-61.76,7.64-91.71l-45.21-5.73c-15.77,26.16-26.47,52.1-30.62,77.75"/>
        <path class="cls-1" d="M239,179.91l34.44,14.33C312.33,175.53,345.21,150,374,119.73l-28-6.37C315,141.74,281.3,164.35,239,179.91Z"/>
        <path class="cls-1" d="M378.5,37.53c-8-9.24-17.9-18.33-28.71-27.36l-11.63,4c21.77,22,41.58,43.66,35.83,59.73h24.2a58.36,58.36,0,0,0-6.46-17.78"/>
        <path class="cls-1" d="M391.73,56.09A106,106,0,0,0,378.5,37.53"/>
      </g>
    </g>
  </g>
</svg>
