<svg xmlns="http://www.w3.org/2000/svg" width="255.05" height="539.36" viewBox="0 0 255.05 539.36">
  <defs>
    <style>
      .cls-1 {
        fill: #fff;
      }
    </style>
  </defs>
  <g id="Calque_2" data-name="Calque 2">
    <g id="Calque_2-2" data-name="Calque 2">
      <g>
        <path class="cls-1" d="M127.58,539.36c-1.7,0-3.4,0-5.11-.1A127.53,127.53,0,0,1,59.37,304l0-237.74a66.3,66.3,0,0,1,132.6,0V301.76a127.53,127.53,0,0,1-64.36,237.6ZM125.64,13.89A52.47,52.47,0,0,0,73.23,66.3l0,245.66-3.45,2A112.18,112.18,0,0,0,14,406.19a113.64,113.64,0,1,0,167.66-94.28l-3.63-2V66.3A52.47,52.47,0,0,0,125.64,13.89Z"/>
        <path class="cls-1" d="M127.66,479.27c-1.55,0-3.11,0-4.68-.16A64.74,64.74,0,0,1,97.35,357.29V285.88a14.57,14.57,0,0,1,14.55-14.55h28.94a16,16,0,0,1,16,16v69.42a64.75,64.75,0,0,1-29.19,122.51Zm-15.76-194a.66.66,0,0,0-.66.66v80.28L107.1,368a50.86,50.86,0,0,0,16.84,97.28,50.87,50.87,0,0,0,23.28-97.66L143,365.81V287.34a2.12,2.12,0,0,0-2.12-2.12Z"/>
        <path class="cls-1" d="M127.52,451a39.46,39.46,0,0,1-38.87-45.84,6.94,6.94,0,0,1,13.7,2.26,26.48,26.48,0,0,0-.34,4.18,25.58,25.58,0,0,0,31.13,24.9,6.94,6.94,0,0,1,3,13.55A39.89,39.89,0,0,1,127.52,451Z"/>
        <path class="cls-1" d="M117.74,70.22H66.55a6.95,6.95,0,0,1,0-13.89h51.19a6.95,6.95,0,1,1,0,13.89Z"/>
        <path class="cls-1" d="M140.94,115.05H66.55a6.94,6.94,0,0,1,0-13.88h74.39a6.94,6.94,0,0,1,0,13.88Z"/>
        <path class="cls-1" d="M112.48,160.47H66.55a6.95,6.95,0,0,1,0-13.89h45.93a6.95,6.95,0,1,1,0,13.89Z"/>
        <path class="cls-1" d="M112.48,248.58H66.55a6.95,6.95,0,0,1,0-13.89h45.93a6.95,6.95,0,1,1,0,13.89Z"/>
        <path class="cls-1" d="M140.94,203.35H66.55a6.95,6.95,0,0,1,0-13.89h74.39a6.95,6.95,0,0,1,0,13.89Z"/>
      </g>
    </g>
  </g>
</svg>
